# xmcd
#
# Track frame offsets:
#   150
#   6203
#   33305
#   56118
#   71053
#   86273
#   110770
#   125505
#   137290
#   145583
#   159780
#   178073
#   191338
#   205830
#   219495
#   232753
#   245775
#   261918
#
# Disc length: 3754 seconds
#
# Revision: 7
# Processed by: cddbd v1.5.1PL0 Copyright (c) Steve Scherf et al.
# Submitted via: Media_Universe 3.0
#
DISCID=f70ea812,f80ea912
DTITLE=Sounds of Blackness - The Night Before Christmas...A Musical Fantasy
DYEAR=1992
DGENRE=Gospel
TTITLE0=Born In A Manger
TTITLE1=Soul Holiday
TTITLE2=It's Christmas Time
TTITLE3=Away In A Manger
TTITLE4=O Come All Ye Faithful
TTITLE5=O Holy Night
TTITLE6=Peace On Earth For Everyone
TTITLE7=Children Go
TTITLE8=Santa's comin' To Town
TTITLE9=Dance, Chilins, Dance
TTITLE10=Holiday Love
TTITLE11=Santa Won't You Come By
TTITLE12=The Jolly One's Here
TTITLE13=Dash Away All/Reindeer Revolt
TTITLE14=Give Us A Chance
TTITLE15=Santa Watch Yo' Step
TTITLE16=Why Don't You Believe In Me?
TTITLE17=Merry Christmas To The World
EXTD=YEAR: 1992
EXTT0=
EXTT1=
EXTT2=
EXTT3=
EXTT4=
EXTT5=
EXTT6=
EXTT7=
EXTT8=
EXTT9=
EXTT10=
EXTT11=
EXTT12=
EXTT13=
EXTT14=
EXTT15=
EXTT16=
EXTT17=
PLAYORDER=
